<?xml version="1.0" encoding="UTF-8"?>
<svg height="20px" version="1.1" viewBox="0 0 110 20" width="110px"
    xmlns="http://www.w3.org/2000/svg">
    <title>Group 4</title>
    <g fill="none" fill-rule="evenodd" id="Page-1" stroke="none" stroke-width="1">
        <g id="Thêm" transform="translate(-132.000000, -54.000000)">
            <g id="Group-4" transform="translate(132.000000, 54.000000)">
                <rect height="20" id="Rectangle" width="110" x="0" y="0"></rect>
                <path
                    d="M9.10862831,2.59348099e-13 L10.7994157,0.0277088158 L11.3449012,0.109205709 L11.863221,0.136371248 L14.4808989,1.00947392 L16.3357667,2.18194163 L17.0991203,2.97300413 L17.3990286,3.49078058 L17.7809771,3.9547691 L18.0265541,4.3910488 L18.3264625,4.8273285 L18.4899994,5.39997944 L18.680702,5.89113363 L18.8447822,6.49095026 L18.6535363,7.03643566 L18.1900911,7.25430394 L17.3718629,7.33634397 L16.6085093,7.25430394 L16.0630239,7.28201276 L15.490373,7.25430394 L14.9992188,7.30917844 L14.3722365,7.00927012 L13.8539168,6.49095026 L13.5540085,6.08183623 L12.762946,5.29077373 L12.3809975,4.99086542 L11.8903866,4.80016282 L11.0449928,4.55458572 L9.87252527,4.50025451 L8.04482317,4.74528832 L7.30863516,5.15440235 L6.65448732,5.67272221 L5.9997962,6.43607576 L5.72705343,6.95439563 L5.31793941,7.9361606 L5.12723681,9.02713141 L5.12723681,10.6907533 L5.2087337,11.2905699 L5.34510495,11.7817241 L5.53635083,12.1631292 L5.72705343,12.7086146 L6.32687005,13.6632142 L7.11793256,14.3722365 L8.07253198,14.8633907 L9.05429709,15.2176302 L9.84481632,15.2996704 L11.2905699,15.2176302 L12.2446261,14.6993103 L12.6537401,14.5357734 L13.0905631,14.1543684 L13.7175454,13.4453459 L13.990288,12.9270262 L14.4265677,12.4907465 L15.0540933,12.1631292 L15.5990354,12.1908381 L16.1445208,12.1631292 L16.6900062,12.2451694 L18.2172566,12.1359637 L18.762742,12.4907465 L18.9262791,12.9813574 L18.2172566,15.0540933 L17.6446057,16.0358583 L17.0176234,16.8540864 L16.2537265,17.61744 L14.9177219,18.5720394 L14.4537334,18.790451 L13.8810823,18.9811536 L13.3904714,19.2538962 L11.7811808,19.5809702 L9.87252527,19.7173416 L8.50881168,19.6086792 L7.99049195,19.5809702 L7.49988104,19.4723078 L6.95439563,19.2810619 L6.46324144,19.171856 L5.23589924,18.6540796 L4.06343167,18.026554 L2.83608947,16.9632921 L1.71795298,15.7631156 L0.545485407,13.3904714 L0.163536925,11.8360553 L-1.20792265e-13,9.84535959 L0.272742634,7.49988104 L0.545485407,6.38174455 L1.2273422,4.85449403 L1.74511865,4.06397495 L2.48184994,3.13654106 L3.65431751,2.07273578 L4.44538001,1.47291916 L6.46324144,0.51831973 L9.10862831,2.59348099e-13 Z M51.5918868,0.272742634 L52.1917034,0.354782805 L53.8281596,0.327617127 L54.2916049,0.627525439 L54.6186789,1.44575362 L54.5643477,2.48184994 L54.6186789,3.87272907 L54.3459361,4.41821447 L53.8009941,4.69095711 L51.7282582,4.63662589 L51.1556071,4.69095711 L50.6101217,4.66379157 L50.1189675,4.69095711 L49.3284484,4.63662589 L48.4553457,4.63662589 L47.9375693,4.99086542 L47.6648265,5.53635083 L47.7191577,6.76369303 L47.6648265,7.28201276 L47.6648265,8.04536645 L47.9647348,8.61801739 L48.5102202,8.83642895 L49.1100369,8.80871999 L50.1738421,8.94509138 L51.6190525,8.83642895 L52.955057,8.89076017 L53.5282513,9.10917158 L53.8009941,9.65411371 L53.8281596,12.0816324 L53.555417,12.9270262 L52.9827659,13.1997688 L51.8646296,13.2541 L51.3191442,13.1997688 L50.7464931,13.2269345 L50.2010077,13.1726033 L49.6555223,13.2812657 L49.0828713,13.1726033 L48.4830547,13.2269345 L47.9375693,13.4725116 L47.6919922,14.017997 L47.7191577,16.9084177 L47.6648265,17.4267374 L47.7463234,18.2992968 L47.4192494,19.1175248 L46.8465985,19.3631019 L45.4828849,19.4723078 L43.573686,19.3902676 L42.9738694,19.1175248 L42.7011266,18.5992051 L42.6739611,10.4180105 L42.7282923,9.7904851 L42.6739611,9.27270851 L42.7011266,8.75438878 L42.7560011,8.26377786 L42.7011266,7.63625229 L42.7560011,7.14564151 L42.7282923,6.57244715 L42.6739611,6.10900191 L42.7831668,3.05450089 L42.7011266,2.23627285 L42.7831668,1.11813635 L42.9467037,0.627525439 L43.5465204,0.327617127 L44.3104173,0.354782805 L44.8830683,0.300451589 L46.2739474,0.300451589 L46.7645583,0.354782805 L47.8283634,0.354782805 L48.6737572,0.300451589 L49.2192426,0.327617127 L50.0374708,0.272742634 L50.5280817,0.327617127 L51.5918868,0.272742634 Z M76.1862826,0.300451589 L82.403947,0.354782805 L84.0132375,0.600359901 L84.5858886,0.736731287 L85.0493338,0.954599428 L85.5948192,1.06380514 L86.113139,1.36371345 L87.5040181,2.29114734 L88.9492284,3.89989461 L89.8766623,5.34564823 L90.0945305,5.86342482 L90.4493134,6.90006442 L90.8307185,9.05429709 L90.8584274,9.84535959 L90.7763873,10.7179189 L90.7763873,11.2905699 L90.6943471,11.8360553 L90.5308102,12.2995006 L90.4221477,12.8721517 L90.2857763,13.3904714 L89.8489534,14.4542767 L89.5218795,14.8905562 L89.2491367,15.4360416 L87.9131323,17.1539948 L86.0859734,18.381337 L84.8037567,18.9268224 L83.6856202,19.1175248 L82.8951012,19.3631019 L82.3496157,19.3631019 L81.504222,19.4723078 L80.6859939,19.4723078 L79.5678575,19.3631019 L79.0223721,19.4445988 L75.6951284,19.3902676 L75.149643,19.4445988 L74.6047009,19.171856 L74.3319581,18.3264623 L74.3319581,16.9355832 L74.2770836,16.4178067 L74.3042493,1.17301085 L74.5498264,0.600359901 L75.149643,0.354782805 L75.6951284,0.381948343 L76.1862826,0.300451589 Z M61.0798206,0.245577096 L61.625306,0.327617127 L63.8615789,0.272742634 L64.4070643,0.327617127 L64.8710528,0.300451589 L65.4159949,0.354782805 L66.0163548,0.300451589 L68.2249189,0.272742634 L68.7160731,0.381948343 L69.288724,0.381948343 L69.8342094,0.600359901 L70.0797865,1.11813635 L70.1341177,2.75459258 L70.1069522,3.30007798 L70.1341177,3.84556339 L69.8613751,4.3361743 L69.288724,4.66379157 L68.7704043,4.69095711 L64.8710528,4.63662589 L64.3527331,4.74528832 L63.8344132,4.71812279 L63.2345966,4.9365342 L62.9890195,5.45431066 L62.9890195,6.29970438 L63.2074311,7.14564151 L63.780082,7.39067519 L65.3616637,7.33634397 L66.5069658,7.41784087 L67.0796168,7.36350965 L68.6889074,7.36350965 L69.3158897,7.71829246 L69.5886323,8.48164601 L69.5071356,10.9363304 L69.3158897,11.4818158 L68.7704043,11.699684 L68.143422,11.6725184 L67.5979366,11.7268496 L66.4798002,11.699684 L65.4437039,11.7540152 L64.5706012,11.6725184 L63.7529165,11.699684 L63.2617623,11.9995923 L63.0161852,12.5722434 L63.0161852,14.2907396 L63.2345966,14.7813505 L63.8072477,15.0540933 L64.4070643,14.9997621 L64.925384,15.0812588 L65.5252007,15.0540933 L66.0706861,15.1084245 L66.9709544,14.9997621 L68.3612901,15.0269276 L68.87961,15.1084245 L69.5071356,15.0540933 L70.0797865,15.2996704 L70.3796948,15.8451558 L70.3796948,18.5992051 L70.0797865,19.171856 L69.5071356,19.4174333 L65.6072408,19.4723078 L65.0617554,19.4174333 L64.51627,19.4723078 L63.8892878,19.4445988 L63.370968,19.3359364 L62.2528316,19.4174333 L61.7616774,19.3902676 L61.1618608,19.4445988 L59.1983306,19.4174333 L58.3801026,19.0631936 L58.1622343,18.3264623 L58.1073598,17.7266457 L58.1894,15.8451558 L58.1073598,15.2996704 L58.1622343,14.7813505 L58.1894,10.3636793 L58.1073598,9.87252513 L58.1345255,7.63625229 L58.1894,7.11793256 L58.1073598,6.54528147 L58.1622343,3.87272907 L58.0801942,3.27291244 L58.1622343,2.15477595 L58.1073598,1.11813635 L58.4072681,0.545485407 L58.9799192,0.327617127 L59.5254046,0.354782805 L60.07089,0.300451589 L60.5620442,0.354782805 L61.0798206,0.245577096 Z M30.2135963,0.0820400316 L31.1138645,0.354782805 L31.5773099,0.845936996 L32.0956296,1.79999315 L32.2591666,2.29114734 L32.5590749,2.78175825 L32.7226119,3.32724366 L34.5226051,7.11793256 L34.7133077,7.6905835 L35.2865019,8.70005756 L35.450039,9.13633726 L35.6950726,9.54545128 L35.859153,10.1452679 L36.1318956,10.6635876 L36.4046384,11.0727018 L37.4407347,13.5540083 L37.9862201,14.5357734 L38.3681685,15.5452475 L39.1043565,16.9632921 L39.5134705,17.9722228 L39.7041731,18.5992051 L39.6226763,19.2538962 L38.8587794,19.3902676 L38.0133857,19.4174333 L37.4950659,19.3631019 L36.4589696,19.4445988 L35.8863185,19.3902676 L35.2587931,19.1175248 L34.7133077,18.7084108 L34.5497706,18.2177999 L34.3047369,17.6994802 L33.7864171,17.2632005 L33.1866004,16.9632921 L32.5862405,17.044789 L32.0956296,16.9904578 L29.4230771,17.0176234 L28.9319229,16.9355832 L27.7866209,17.044789 L27.2683011,16.9632921 L26.69565,17.2632005 L26.1773303,17.7815203 L25.6867194,18.6812453 L25.1683997,19.171856 L24.5414174,19.3631019 L23.0141669,19.4174333 L22.4686815,19.3631019 L21.4048763,19.4174333 L20.8599342,19.2538962 L20.7235628,18.5720394 L20.8870999,18.026554 L21.4325853,16.9355832 L21.5689565,16.4449724 L21.8688648,16.0630239 L22.277979,14.9720531 L22.7685898,14.0994937 L22.9598356,13.5540083 L23.2320351,13.1448943 L23.3961153,12.5450777 L26.1773303,6.70881854 L26.3414105,6.21820762 L26.6413188,5.69988775 L26.7776902,5.15440235 L27.0775985,4.74528832 L28.1685693,2.23627285 L28.4136032,1.85486764 L28.604849,1.30938223 L28.8504261,0.845936996 L29.3410371,0.381948343 L30.2135963,0.0820400316 Z M95.9276718,0.245577096 L96.3916603,0.354782805 L96.9643114,0.327617127 L97.5912936,0.573194223 L98.1639447,1.09097081 L99.4461614,3.49078058 L99.7460697,3.9547691 L100.563754,5.48201961 L100.864206,5.91829931 L101.164114,6.43607576 L101.464023,6.43607576 L101.818262,5.97263053 L102.282251,4.9365342 L102.554993,4.47254569 L102.827736,3.89989461 L103.427553,3.02733535 L103.754627,2.20910717 L104.463649,1.0366396 L104.954803,0.573194223 L105.690991,0.300451589 L106.154437,0.327617127 L107.218242,0.300451589 L107.763727,0.381948343 L108.336378,0.327617127 L109.400183,0.354782805 L109.890794,0.463988514 L110,1.06380514 L109.700092,1.74566193 L107.95443,4.63662589 L107.627356,5.0180311 L104.163741,10.7179189 L103.890998,11.4269413 L103.727461,12.2180038 L103.754627,13.7995854 L103.67313,14.2907396 L103.67313,14.8356817 L103.727461,15.3811671 L103.645964,18.5448739 L103.427553,19.1175248 L102.882067,19.4174333 L102.336582,19.3631019 L101.573228,19.4174333 L100.727835,19.3631019 L100.236681,19.4174333 L99.6911952,19.3902676 L99.1185441,19.171856 L98.9006759,18.5720394 L98.9278415,17.5359432 L98.872967,17.0176234 L98.9278415,14.9177219 L98.872967,14.3722365 L98.9006759,12.2180038 L98.7643046,11.4818158 L98.4915619,10.7179189 L96.3916603,7.39067519 L96.1732489,6.90006442 L95.5185578,6.02750502 L94.4004213,4.09114049 L94.100513,3.709192 L92.9280454,1.77282747 L92.6553026,1.14584531 L92.7373428,0.545485407 L93.2822849,0.272742634 L94.5367927,0.354782805 L95.9276718,0.245577096 Z M81.5313876,4.77299728 L80.3860855,4.80016282 L79.5135263,4.99086542 L79.2407835,5.618391 L79.185909,6.08183623 L79.2407835,9.84535959 L79.1315778,11.209073 L79.2407835,12.5450777 L79.2130746,13.6632142 L79.2407835,14.1266594 L79.4586516,14.6449791 L80.0861772,14.9448874 L80.6039537,14.9997621 L81.4221819,14.9720531 L82.5951928,14.8356817 L83.3857119,14.5906479 L84.3131458,13.990288 L85.3220765,12.844986 L85.7855218,11.8360553 L86.0582645,9.92685635 L85.6219848,7.52704658 L85.3769511,7.03643566 L85.1042083,6.57244715 L84.6950943,6.08183623 L84.2859803,5.69988775 L83.8768661,5.39997944 L83.3857119,5.15440235 L82.3224501,4.85449403 L81.5313876,4.77299728 Z M30.2135963,8.70005756 L29.913688,8.94509138 L28.6320146,11.8903866 L28.6591803,12.4087063 L29.09546,12.5994089 L29.7229854,12.5450777 L30.2684708,12.6542834 L31.3594416,12.6271178 L31.7680124,12.4087063 L31.8772182,11.9180955 L30.5955448,8.9179257 L30.2135963,8.70005756 Z"
                    fill="#276EF1" fill-rule="nonzero" id="Combined-Shape-Copy"></path>
            </g>
        </g>
    </g>
</svg>